<svg version="1.1" xmlns="http://www.w3.org/2000/svg" xmlns:xlink="http://www.w3.org/1999/xlink" width="512" height="349.23" viewBox="0,0,512,349.23"><g transform="translate(16,-5.385)"><g data-paper-data="{&quot;isPaintingLayer&quot;:true}" fill-rule="nonzero" stroke="none" stroke-linecap="butt" stroke-linejoin="miter" stroke-miterlimit="10" stroke-dasharray="" stroke-dashoffset="0" style="mix-blend-mode: normal"><g><path d="M496,245.107c0,60.383 -49.125,109.508 -109.509,109.508h-292.983c-60.383,0 -109.508,-49.125 -109.508,-109.508c0,-49.758 33.885,-93.287 81.446,-105.863c2.195,-74.183 63.226,-133.859 137.931,-133.859c22.246,0 43.485,5.158 63.127,15.331c17.071,8.842 32.339,21.381 44.441,36.457c7.434,-1.965 15.029,-2.958 22.647,-2.958c48.647,0 88.32,39.164 89.148,87.618c20.01,7.046 37.897,20.001 50.839,36.933c14.667,19.19 22.421,42.13 22.421,66.341zM480.443,245.106c0,-20.768 -6.647,-40.442 -19.224,-56.895c-12.175,-15.928 -29.439,-27.753 -48.61,-33.297l-5.911,-1.709l0.303,-6.145c0.026,-0.507 0.059,-1.013 0.093,-1.518c0.053,-0.782 0.103,-1.519 0.103,-2.164c0,-40.588 -33.019,-73.607 -73.606,-73.607c-7.791,0 -15.566,1.265 -23.108,3.759l-5.348,1.769l-3.349,-4.53c-23.406,-31.666 -59.276,-49.828 -98.411,-49.828c-67.511,0 -122.436,54.925 -122.436,122.437c0,0.176 0.019,0.347 0.031,0.52c0.033,0.457 0.061,0.915 0.069,1.38l0.106,6.47l-6.342,1.281c-43.601,8.805 -75.248,47.53 -75.248,92.079c0,51.806 42.147,93.953 93.953,93.953h292.983c51.806,0 93.954,-42.148 93.952,-93.955z" fill="#000000" stroke-width="1"/><path d="M386.52487,339.09778l-293.05074,0c-51.806,0 -93.96739,-42.17071 -93.96739,-93.97671c0,-44.549 31.64592,-83.29513 75.24692,-92.10013l6.34212,-1.2817l-0.10562,-6.47191c-0.008,-0.465 -0.03591,-0.9234 -0.06891,-1.3804c-0.012,-0.173 -0.03097,-0.34415 -0.03097,-0.52015c0,-67.512 54.96251,-122.47451 122.47351,-122.47451c39.135,0 75.04084,18.1672 98.44684,49.8332l3.35079,4.53107l5.34919,-1.76824c7.542,-2.494 15.32176,-3.75542 23.11276,-3.75542c40.587,0 73.62248,33.04642 73.62248,73.63442c0,0.645 -0.04987,1.3826 -0.10287,2.1646c-0.034,0.505 -0.06691,1.01142 -0.09291,1.51842l-0.30269,6.14674l5.91111,1.70974c19.171,5.544 36.43549,17.37805 48.61049,33.30605c12.577,16.453 19.2223,36.13821 19.2223,56.90621c0.002,51.807 -42.16039,93.97871 -93.96639,93.97871z" data-paper-data="{&quot;noHover&quot;:false,&quot;origItem&quot;:[&quot;Path&quot;,{&quot;applyMatrix&quot;:true,&quot;segments&quot;:[[[480.443,245.106],[0.002,51.807],[0,-20.768]],[[461.219,188.211],[12.577,16.453],[-12.175,-15.928]],[[412.609,154.914],[19.171,5.544],[0,0]],[406.698,153.205],[[407.001,147.06],[0,0],[0.026,-0.507]],[[407.094,145.542],[-0.034,0.505],[0.053,-0.782]],[[407.197,143.378],[0,0.645],[0,-40.588]],[[333.591,69.771],[40.587,0],[-7.791,0]],[[310.483,73.53],[7.542,-2.494],[0,0]],[305.135,75.299],[[301.786,70.769],[0,0],[-23.406,-31.666]],[[203.375,20.941],[39.135,0],[-67.511,0]],[[80.939,143.378],[0,-67.512],[0,0.176]],[[80.97,143.898],[-0.012,-0.173],[0.033,0.457]],[[81.039,145.278],[-0.008,-0.465],[0,0]],[81.145,151.748],[[74.803,153.029],[0,0],[-43.601,8.805]],[[-0.445,245.108],[0,-44.549],[0,51.806]],[[93.508,339.061],[-51.806,0],[0,0]],[[386.491,339.061],[0,0],[51.806,0]]],&quot;closed&quot;:true,&quot;fillColor&quot;:[0,0,0,1]}]}" fill="#ffffff" stroke-width="0.5"/><path d="M183.526,53.496v15.555c-26.661,0 -48.351,21.69 -48.351,48.35h-15.555c0,-35.238 28.669,-63.906 63.906,-63.905z" fill="#000000" stroke-width="1"/></g><g fill="#000000" stroke-width="1" font-family="&quot;Helvetica Neue&quot;, Helvetica, Arial, sans-serif" font-weight="400" font-size="16" text-anchor="start"/><g fill="#000000" stroke-width="1" font-family="&quot;Helvetica Neue&quot;, Helvetica, Arial, sans-serif" font-weight="400" font-size="16" text-anchor="start"/><g fill="#000000" stroke-width="1" font-family="&quot;Helvetica Neue&quot;, Helvetica, Arial, sans-serif" font-weight="400" font-size="16" text-anchor="start"/><g fill="#000000" stroke-width="1" font-family="&quot;Helvetica Neue&quot;, Helvetica, Arial, sans-serif" font-weight="400" font-size="16" text-anchor="start"/><g fill="#000000" stroke-width="1" font-family="&quot;Helvetica Neue&quot;, Helvetica, Arial, sans-serif" font-weight="400" font-size="16" text-anchor="start"/><g fill="#000000" stroke-width="1" font-family="&quot;Helvetica Neue&quot;, Helvetica, Arial, sans-serif" font-weight="400" font-size="16" text-anchor="start"/><g fill="#000000" stroke-width="1" font-family="&quot;Helvetica Neue&quot;, Helvetica, Arial, sans-serif" font-weight="400" font-size="16" text-anchor="start"/></g></g></svg>