<svg version="1.1" xmlns="http://www.w3.org/2000/svg" xmlns:xlink="http://www.w3.org/1999/xlink" width="492.308" height="335.212" viewBox="0,0,492.308,335.212"><g transform="translate(6.15401,-12.39399)"><g data-paper-data="{&quot;isPaintingLayer&quot;:true}" fill-rule="nonzero" stroke="none" stroke-linecap="butt" stroke-linejoin="miter" stroke-miterlimit="10" stroke-dasharray="" stroke-dashoffset="0" style="mix-blend-mode: normal"><path d="M486.154,256.308c0,50.346 -40.957,91.298 -91.298,91.298h-309.707c-50.346,0 -91.303,-40.952 -91.303,-91.298c0,-35.222 20.562,-67.279 51.975,-82.308c-0.918,-5.154 -1.38,-10.298 -1.38,-15.394c0,-49.423 40.207,-89.635 89.63,-89.635c3.851,0 7.74,0.26 11.625,0.779c11.241,-20.692 32.726,-33.673 56.736,-33.673c8.096,0 15.933,1.471 23.38,4.394c21.471,-18.154 48.467,-28.077 76.731,-28.077c65.706,0 119.163,53.451 119.163,119.163c0,12.289 -1.87,24.337 -5.567,35.952c40.683,9.597 70.015,45.799 70.015,88.799zM466.463,256.30699c0,-37.087 -27.808,-67.722 -64.688,-71.26l-13.519,-1.298l5.438,-12.442c5.524,-12.635 8.322,-26.01 8.322,-39.75c0,-54.846 -44.62,-99.471 -99.471,-99.471c-25.443,0 -49.659,9.644 -68.183,27.144l-5.087,4.808l-6.212,-3.221c-6.457,-3.346 -13.399,-5.048 -20.63,-5.048c-18.606,0 -35.034,11.221 -41.856,28.577l-3.077,7.837l-8.221,-1.817c-5.077,-1.135 -10.193,-1.702 -15.207,-1.702c-38.562,0 -69.937,31.375 -69.937,69.942c0,6.125 0.875,12.394 2.596,18.644l2.413,8.75l-8.524,3.115c-28.164,10.288 -47.082,37.288 -47.082,67.192c0,39.481 32.125,71.606 71.611,71.606h309.707c39.485,0 71.605,-32.125 71.607,-71.606z" fill="#7a0000" stroke-width="1"/><path d="M394.89216,327.94754h-309.77931c-39.486,0 -71.62223,-32.14357 -71.62223,-71.62457c0,-29.904 18.91545,-56.91743 47.07945,-67.20543l8.52397,-3.11578l-2.41302,-8.75255c-1.721,-6.25 -2.59564,-12.52424 -2.59564,-18.64924c0,-38.567 31.38677,-69.96861 69.94877,-69.96861c5.014,0 10.1323,0.56451 15.2093,1.69951l8.22233,1.8157l3.07929,-7.83903c6.822,-17.356 23.26747,-28.58639 41.87347,-28.58639c7.231,0 14.18044,1.70036 20.63744,5.04636l6.21443,3.22072l5.08927,-4.80816c18.524,-17.5 42.7618,-27.14011 68.2048,-27.14011c54.851,0 99.49943,44.65673 99.49943,99.50273c0,13.74 -2.79598,27.1265 -8.31998,39.7615l-5.43794,12.44609l13.51899,1.2983c36.88,3.538 64.68541,34.18741 64.68541,71.27441c-0.002,39.481 -32.13323,71.62457 -71.61823,71.62457z" data-paper-data="{&quot;noHover&quot;:false,&quot;origItem&quot;:[&quot;Path&quot;,{&quot;applyMatrix&quot;:true,&quot;segments&quot;:[[[466.46299,256.30699],[-0.002,39.481],[0,-37.087]],[[401.77499,185.04699],[36.88,3.538],[0,0]],[388.25599,183.74899],[[393.69399,171.30699],[0,0],[5.524,-12.635]],[[402.01599,131.55699],[0,13.74],[0,-54.846]],[[302.54499,32.08599],[54.851,0],[-25.443,0]],[[234.36199,59.22999],[18.524,-17.5],[0,0]],[229.27499,64.03799],[[223.06299,60.81699],[0,0],[-6.457,-3.346]],[[202.43299,55.76899],[7.231,0],[-18.606,0]],[[160.57699,84.34599],[6.822,-17.356],[0,0]],[157.49999,92.18299],[[149.27899,90.36599],[0,0],[-5.077,-1.135]],[[134.07199,88.66399],[5.014,0],[-38.562,0]],[[64.13499,158.60599],[0,-38.567],[0,6.125]],[[66.73099,177.24999],[-1.721,-6.25],[0,0]],[69.14399,185.99999],[[60.61999,189.11499],[0,0],[-28.164,10.288]],[[13.53799,256.30699],[0,-29.904],[0,39.481]],[[85.14899,327.91299],[-39.486,0],[0,0]],[[394.85599,327.91299],[0,0],[39.485,0]]],&quot;closed&quot;:true,&quot;fillColor&quot;:[0,0,0,1]}]}" fill="#ff4444" stroke-width="0.5"/><g fill="none" stroke-width="1" font-family="sans-serif" font-weight="normal" font-size="12" text-anchor="start"/><g fill="none" stroke-width="1" font-family="sans-serif" font-weight="normal" font-size="12" text-anchor="start"/><g fill="none" stroke-width="1" font-family="sans-serif" font-weight="normal" font-size="12" text-anchor="start"/></g></g></svg>
